<svg viewBox="0 0 1280 1213" xmlns="http://www.w3.org/2000/svg" fill-rule="evenodd" clip-rule="evenodd" stroke-linejoin="round" stroke-miterlimit="1.414"><path d="M637 30.4c0 .3-6.5 20.7-14.5 45.3-8 24.6-14.5 45.8-14.5 47.1 0 3 9.7 41.5 11.6 46.1 1.7 4.1 1.9 21.9.3 25.5-1.3 2.7-3.5 3.6-9.4 3.6-6.1 0-11.1-2.9-20.8-11.8-12.9-11.8-29.1-19.1-49.7-22.6-20.6-3.4-53.6-4.6-71.5-2.6-26.2 3-40.4 7.5-121 38.8-56.8 22-70.5 25.5-100 25.6-16.3.1-17.2 0-23.3-2.6-3.5-1.5-9-3.2-12.2-3.9-5-1-6.1-.9-8.5.7-3.7 2.4-4.9 5.8-3.1 9.3 1.5 2.9 6.9 5.8 22.4 12.2 9.3 3.8 12.8 6.4 13.8 10.4.5 2.1-19.8 59.2-89.6 252.3C97.3 641.1 53.5 762.3 49.7 773c-3.9 10.7-7.9 20.7-8.9 22.2s-3.6 3.2-6.1 4c-6.6 2.1-5.9 4.6 4.6 16.6 9.7 11.1 29.6 30.6 41.5 40.8 32.3 27.6 73.1 43.4 133.2 51.6 5.9.8 19.7 1.3 36.5 1.2 22.4 0 29.3-.4 40.5-2.1 52.7-8.2 101.9-28.3 134.5-54.7 15.6-12.7 29-26.6 39.7-41.3 6.3-8.7 6.2-9.7-.9-11.3-7.5-1.6-9-2.4-10.9-6.1-1.3-2.7-37.5-101.5-166.3-454.1-18.6-50.8-29.1-81-29.1-83.4v-3.7l12.3.6c36.6 2 66.5 2.8 76.2 2.3 6.1-.3 21.1-2.2 33.5-4.1 12.4-2 29.7-4.7 38.5-6.1 19.6-3.1 42.3-4 61.1-2.5 24.5 1.9 36.9 6.4 46.6 16.9 6.3 6.9 13.1 19.5 17.8 32.9l3.3 9.3H620v6.2c0 22.2-5 52.6-16.4 99.8-10.7 44.7-13.7 66.1-13.9 100.5-.1 20.7.2 25.9 2.1 38 3.2 19.6 8.5 40.3 14.4 56.9 10.7 30.2 12.2 37.6 12.1 61.1-.1 28.4-3.5 47.1-14.8 81.7-10.6 32.4-13.6 50.7-13.5 83.2 0 31.6 1.7 43.5 14.2 97.6l7 30.5-2.4 1.4c-1.2.8-5.5 4.6-9.4 8.5C587.3 979.6 582 994 582 1015c0 13.4 1.1 17.9 7.5 31 5.1 10.5 6.1 15.2 4.5 21.1-3.7 13.8-30.7 25.5-68 29.4-23.5 2.5-48.9 1.7-78-2.6-26.7-3.9-35.8-4.9-52.8-5.8-21.3-1-39.9.1-52.5 3.3-28.6 7.3-36.6 19.6-36.7 55.9 0 18.9.5 20.6 9.3 29.4l6.1 6.3h639.2l2.6-2.7c6.2-6.7 9.7-17.9 10.5-33.5 1.3-26.2-6.1-41.4-24.2-49.9-16.5-7.7-34.9-10.3-63.7-8.8-19.1.9-26.9 1.8-50.9 5.9-27.2 4.5-43.4 5.5-70.9 4.4l-23.5-1-12.5-4.2c-17.5-5.9-33.9-14.1-40-20-4.8-4.7-5-5-5-10.4 0-7.5 1.9-13.3 7.3-22 2.5-4 5.2-9.7 6.1-12.7 2-6.9 2.1-22.5.1-30.9-2.9-12.1-11.4-25.6-22-34.9-3-2.6-5.5-5.6-5.5-6.6s1.8-9 4-17.7c15.6-62 18.5-103.6 10.4-148-1.4-7.4-5.1-24.5-8.4-38-12.1-50.4-15.1-73.8-13.1-100.7 1.3-17.1 3.6-28.1 13.1-64.3 14.1-53.3 16.4-68.9 14.8-100.7-1.1-22.9-4.9-41.7-14.3-69.6-13.1-39.1-17.8-68.7-16-101l.7-13.7H695c26.6 0 35-.3 35.8-1.3.6-.6 3.7-7.1 7-14.4 12.9-28.4 22.9-38.3 43-41.9 11.6-2 46.6-2.9 59.2-1.5 5.8.7 24.8 3.4 42.3 6.1 46.4 7.2 51.2 7.5 84.8 6.1 15.6-.6 33.7-1.4 40.2-1.8l11.7-.6v2.8c0 1.6-12.6 37.8-27.9 80.4-15.4 42.7-58.6 162.9-96.1 267.1-37.5 104.2-68.8 191-69.5 192.7-1 2.2-2.1 3.3-3.5 3.3-1.1 0-5 .6-8.5 1.2-4.6.9-6.5 1.7-6.5 2.8 0 2.1 34.5 35.9 46.5 45.6 46.5 37.2 91.6 55.4 150 60.4 47.6 4 93.8-3.5 141.7-23.1 43-17.6 80.3-45.7 100.8-75.9 5.2-7.6 5.2-9 0-9-5.1 0-8.8-1.8-10.5-5.1-.8-1.4-24.4-66-52.5-143.5-28.2-77.5-64-176.2-79.7-219.4-56.4-155.4-65.3-180.1-65.3-181.4 0-2.5 3.8-4.6 17.8-9.9 7.8-3 15.3-6.2 16.8-7.2 5.3-3.5 6.8-13.2 2.3-15.6-2.6-1.3-9.9-.3-17.4 2.6-3.3 1.3-7.8 2.8-10 3.4-9.6 2.6-36.2.5-56.2-4.4-12.4-3-38.7-12.3-79.8-28.3-74.7-29-85.2-31.7-124.5-31.6-33.8 0-53.3 3.1-76 11.8-10.8 4.2-14.5 6.5-23.8 14.9-16.3 14.6-31.2 12.5-31.2-4.4 0-2.3 3.6-17.1 8-32.8l7.9-28.6L656.1 76c-11.3-32.4-16.3-45.6-17.5-45.8-.9-.2-1.6-.1-1.6.2zM289.9 425.6c78.7 216.9 121.9 336 127 349.9 3.5 9.5 5.1 15.5 5.1 18.7v4.8H71.8l.4-2.3c.4-1.7 171-476.5 174.4-485.1.6-1.5.8-1.6 1.5-.4.4.8 19.2 52.3 41.8 114.4zm756.4-70.6c8.5 23.4 48.3 131.8 88.3 241 40 109.2 72.9 199.5 73.2 200.7l.4 2.3H1031c-168.3 0-177.2-.1-176.8-1.8.3-.9 33.2-92.4 73.2-203.2 40-110.8 79.4-219.8 87.4-242.2 8.1-22.4 15-40.4 15.3-40 .4.4 7.7 19.8 16.2 43.2z" fill="#786554" fill-rule="nonzero"/></svg>